<?xml version="1.0" standalone="no"?>
<!DOCTYPE svg PUBLIC "-//W3C//DTD SVG 20010904//EN"
 "http://www.w3.org/TR/2001/REC-SVG-20010904/DTD/svg10.dtd">
<svg version="1.0" xmlns="http://www.w3.org/2000/svg"
 width="1024.000000pt" height="1024.000000pt" viewBox="0 0 1024.000000 1024.000000"
 preserveAspectRatio="xMidYMid meet">
<metadata>
Created by potrace 1.11, written by Peter Selinger 2001-2013
</metadata>
<g transform="translate(0.000000,1024.000000) scale(0.100000,-0.100000)"
fill="#000000" stroke="none">
<path d="M4940 8613 c-496 -27 -957 -150 -1400 -374 -347 -175 -605 -362 -891
-648 -288 -289 -478 -550 -659 -908 -443 -879 -487 -1928 -120 -2854 349 -877
1070 -1599 1945 -1947 303 -120 582 -190 935 -234 138 -17 602 -17 740 0 614
76 1117 261 1599 589 817 555 1362 1433 1496 2408 32 238 35 407 35 2188 l0
1787 -1812 -2 c-997 -1 -1838 -3 -1868 -5z m410 -1488 c399 -48 762 -203 1065
-456 783 -655 954 -1799 395 -2648 -323 -491 -827 -811 -1411 -896 -140 -20
-418 -20 -558 0 -445 65 -837 262 -1153 578 -901 905 -741 2409 332 3109 390
255 873 369 1330 313z"/>
</g>
</svg>
